# xmcd CD database file
#
# Track frame offsets:
#	187
#	27367
#	42677
#	65662
#	85127
#	100049
#	111284
#	124037
#	141689
#	155257
#	168397
#	192199
#	202922
#
# Disc length: 2881 seconds
#
# Revision: 0
# Processed by: cddbd v1.4PL0 Copyright (c) Steve Scherf et al.
# Submitted via: CDex 1.50beta10
#
DISCID=b70b3f0d
DTITLE=Lisa Ekdahl - When Did You Leave Heaven
DYEAR=1995
DGENRE=Jazz
TTITLE0=When Did You Leave Heaven
TTITLE1=But Not for Me
TTITLE2=Cry Me a River
TTITLE3=Love for Sale
TTITLE4=Lush Life
TTITLE5=You're Gonna See a Lot of Me
TTITLE6=It Was Just One of Those Things
TTITLE7=The Boy Next Door
TTITLE8=I'm a Fool to Want You
TTITLE9=My Heart Belongs to Daddy
TTITLE10=Blame It on My Youth
TTITLE11=I Get A Kick Out Of You
TTITLE12=I Can't Get Started
EXTD=YEAR: 1995
EXTT0=
EXTT1=
EXTT2=
EXTT3=
EXTT4=
EXTT5=
EXTT6=
EXTT7=
EXTT8=
EXTT9=
EXTT10=
EXTT11=
EXTT12=
PLAYORDER=
